<?xml version="1.0" encoding="utf-8"?>
<!-- Uploaded to: SVG Repo, www.svgrepo.com, Generator: SVG Repo Mixer Tools -->
<svg width="800px" height="800px" viewBox="-10 0 188 188" fill="none" xmlns="http://www.w3.org/2000/svg" xmlns:xlink="http://www.w3.org/1999/xlink">
<path d="M17.5 7C21.0899 7 24 4.08985 24 0.5C24 0.331764 23.9936 0.165021 23.9811 0H33.0189C33.0064 0.165021 33 0.331764 33 0.5C33 4.08985 35.9101 7 39.5 7C43.0899 7 46 4.08985 46 0.5C46 0.331764 45.9936 0.165021 45.9811 0H55.0189C55.0064 0.165021 55 0.331764 55 0.5C55 4.08985 57.9101 7 61.5 7C65.0899 7 68 4.08985 68 0.5C68 0.331764 67.9936 0.165021 67.9811 0H77.0189C77.0064 0.165021 77 0.331764 77 0.5C77 4.08985 79.9101 7 83.5 7C87.0899 7 90 4.08985 90 0.5C90 0.331764 89.9936 0.165021 89.9811 0H99.0189C99.0064 0.165021 99 0.331764 99 0.5C99 4.08985 101.91 7 105.5 7C109.09 7 112 4.08985 112 0.5C112 0.331764 111.994 0.165021 111.981 0H121.019C121.006 0.165021 121 0.331764 121 0.5C121 4.08985 123.91 7 127.5 7C131.09 7 134 4.08985 134 0.5C134 0.331764 133.994 0.165021 133.981 0H143.019C143.006 0.165021 143 0.331764 143 0.5C143 4.08985 145.91 7 149.5 7C153.09 7 156 4.08985 156 0.5C156 0.331764 155.994 0.165021 155.981 0H168V12.0189C167.835 12.0064 167.668 12 167.5 12C163.91 12 161 14.9101 161 18.5C161 22.0899 163.91 25 167.5 25C167.668 25 167.835 24.9936 168 24.9811V34.0189C167.835 34.0064 167.668 34 167.5 34C163.91 34 161 36.9101 161 40.5C161 44.0899 163.91 47 167.5 47C167.668 47 167.835 46.9936 168 46.9811V56.0189C167.835 56.0064 167.668 56 167.5 56C163.91 56 161 58.9101 161 62.5C161 66.0899 163.91 69 167.5 69C167.668 69 167.835 68.9936 168 68.9811V78.0189C167.835 78.0064 167.668 78 167.5 78C163.91 78 161 80.9101 161 84.5C161 88.0899 163.91 91 167.5 91C167.668 91 167.835 90.9936 168 90.9811V100.019C167.835 100.006 167.668 100 167.5 100C163.91 100 161 102.91 161 106.5C161 110.09 163.91 113 167.5 113C167.668 113 167.835 112.994 168 112.981V122.019C167.835 122.006 167.668 122 167.5 122C163.91 122 161 124.91 161 128.5C161 132.09 163.91 135 167.5 135C167.668 135 167.835 134.994 168 134.981V144.019C167.835 144.006 167.668 144 167.5 144C163.91 144 161 146.91 161 150.5C161 154.09 163.91 157 167.5 157C167.668 157 167.835 156.994 168 156.981V166.019C167.835 166.006 167.668 166 167.5 166C163.91 166 161 168.91 161 172.5C161 176.09 163.91 179 167.5 179C167.668 179 167.835 178.994 168 178.981V188H155.981C155.726 184.644 152.922 182 149.5 182C146.078 182 143.274 184.644 143.019 188H133.981C133.726 184.644 130.922 182 127.5 182C124.078 182 121.274 184.644 121.019 188H111.981C111.726 184.644 108.922 182 105.5 182C102.078 182 99.2743 184.644 99.0189 188H89.9811C89.7257 184.644 86.9216 182 83.5 182C80.0784 182 77.2743 184.644 77.0189 188H67.9811C67.7257 184.644 64.9216 182 61.5 182C58.0784 182 55.2743 184.644 55.0189 188H45.9811C45.7257 184.644 42.9216 182 39.5 182C36.0784 182 33.2743 184.644 33.0189 188H23.9811C23.7257 184.644 20.9216 182 17.5 182C14.0784 182 11.2743 184.644 11.0189 188H0V178.981C0.165021 178.994 0.331764 179 0.5 179C4.08985 179 7 176.09 7 172.5C7 168.91 4.08985 166 0.5 166C0.331764 166 0.165021 166.006 0 166.019V156.981C0.165021 156.994 0.331764 157 0.5 157C4.08985 157 7 154.09 7 150.5C7 146.91 4.08985 144 0.5 144C0.331764 144 0.165021 144.006 0 144.019V134.981C0.165021 134.994 0.331764 135 0.5 135C4.08985 135 7 132.09 7 128.5C7 124.91 4.08985 122 0.5 122C0.331764 122 0.165021 122.006 0 122.019V112.981C0.165021 112.994 0.331764 113 0.5 113C4.08985 113 7 110.09 7 106.5C7 102.91 4.08985 100 0.5 100C0.331764 100 0.165021 100.006 0 100.019V90.9811C0.165021 90.9936 0.331764 91 0.5 91C4.08985 91 7 88.0899 7 84.5C7 80.9101 4.08985 78 0.5 78C0.331764 78 0.165021 78.0064 0 78.0189V68.9811C0.165021 68.9936 0.331764 69 0.5 69C4.08985 69 7 66.0899 7 62.5C7 58.9101 4.08985 56 0.5 56C0.331764 56 0.165021 56.0064 0 56.0189V46.9811C0.165021 46.9936 0.331764 47 0.5 47C4.08985 47 7 44.0899 7 40.5C7 36.9101 4.08985 34 0.5 34C0.331764 34 0.165021 34.0064 0 34.0189V24.9811C0.165021 24.9936 0.331764 25 0.5 25C4.08985 25 7 22.0899 7 18.5C7 14.9101 4.08985 12 0.5 12C0.331764 12 0.165021 12.0064 0 12.0189V0H11.0189C11.0064 0.165021 11 0.331764 11 0.5C11 4.08985 13.9101 7 17.5 7Z" fill="white"/>
<rect x="14" y="16" width="140" height="156" rx="4" fill="#EAEAEA"/>
<path fill-rule="evenodd" clip-rule="evenodd" d="M125.094 80.3949C125.124 80.7556 125.314 81.0865 125.61 81.2944C134.899 87.8123 140.971 98.6035 140.971 110.813C140.971 130.714 124.838 146.848 104.936 146.848H63.0351C43.1335 146.848 27 130.714 27 110.813C27 99.0527 32.6334 88.6084 41.349 82.0312C41.6331 81.8167 41.8099 81.4867 41.8325 81.1314C43.0083 62.6483 58.3718 48.0211 77.1517 48.0211H89.8293C108.359 48.0211 123.563 62.2612 125.094 80.3949Z" fill="#D5DE72"/>
<g style="mix-blend-mode:multiply">
<path fill-rule="evenodd" clip-rule="evenodd" d="M88.2445 73.3763C97.58 73.3763 105.148 65.8083 105.148 56.4728C105.148 54.5922 104.841 52.7832 104.274 51.0934C99.8631 49.1191 94.9744 48.0211 89.8292 48.0211H77.1516C75.9173 48.0211 74.6978 48.0843 73.4961 48.2076C72.1237 50.6513 71.3411 53.4707 71.3411 56.4728C71.3411 65.8083 78.909 73.3763 88.2445 73.3763Z" fill="#D5DE72"/>
</g>
<g style="mix-blend-mode:multiply">
<path fill-rule="evenodd" clip-rule="evenodd" d="M43.2229 73.3105C45.4929 65.675 50.2702 59.1187 56.6002 54.5962C60.336 56.5286 62.8895 60.4285 62.8895 64.9247C62.8895 71.3429 57.6865 76.5458 51.2683 76.5458C48.1458 76.5458 45.3109 75.3143 43.2229 73.3105Z" fill="#D5DE72"/>
</g>
<g style="mix-blend-mode:multiply">
<path fill-rule="evenodd" clip-rule="evenodd" d="M118.849 63.1492C122.199 67.9378 124.394 73.5939 125.03 79.7132C119.867 79.6115 115.713 75.3943 115.713 70.2069C115.713 67.4067 116.923 64.8892 118.849 63.1492Z" fill="#D5DE72"/>
</g>
<path fill-rule="evenodd" clip-rule="evenodd" d="M140.515 105.066C140.815 106.937 140.971 108.857 140.971 110.813C140.971 130.715 124.838 146.848 104.936 146.848H63.035C43.1334 146.848 27 130.715 27 110.813C27 107.661 27.4047 104.604 28.1649 101.69C31.7241 99.1316 35.8187 97.6751 40.1754 97.6751C47.1546 97.6751 53.4612 101.413 57.9717 107.43C64.3056 101.413 73.1617 97.675 82.9623 97.675C92.4486 97.675 101.05 101.177 107.336 106.858C111.812 101.177 117.937 97.675 124.693 97.675C130.706 97.675 136.219 100.45 140.515 105.066Z" fill="#FFF9BA"/>
<circle cx="42.8166" cy="115.635" r="8.45172" fill="#FFCEB9"/>
<circle cx="124.164" cy="115.635" r="8.45172" fill="#FFCEB9"/>
<ellipse cx="58.3317" cy="88.5443" rx="7.06334" ry="8.82918" fill="#433D3C"/>
<ellipse cx="56.5659" cy="85.4541" rx="2.64875" ry="3.09021" fill="white"/>
<circle cx="60.539" cy="89.8687" r="1.32438" fill="white"/>
<ellipse rx="7.06334" ry="8.82918" transform="matrix(-1 0 0 1 108.137 88.5443)" fill="#433D3C"/>
<ellipse rx="2.64875" ry="3.09021" transform="matrix(-1 0 0 1 109.903 85.4541)" fill="white"/>
<circle r="1.32438" transform="matrix(-1 0 0 1 105.93 89.8687)" fill="white"/>
<ellipse cx="72.2431" cy="109.749" rx="2.64116" ry="3.69763" transform="rotate(10 72.2431 109.749)" fill="#433D3C"/>
<ellipse cx="96.7293" cy="109.932" rx="2.64116" ry="3.69763" transform="rotate(-10 96.7293 109.932)" fill="#433D3C"/>
<path d="M113.283 146.143C97.0732 131.942 100.88 134.122 77.6189 129.429" stroke="#5EA985" stroke-width="2.60879" stroke-linecap="round"/>
<path d="M99.1168 139.659C98.8036 136.803 96.6705 133.83 96.6705 133.83C96.6705 133.83 95.233 137.195 95.5463 140.051C95.8595 142.906 97.9925 145.88 97.9925 145.88C97.9925 145.88 99.4301 142.514 99.1168 139.659Z" fill="#5EA985"/>
<path d="M101.584 130.257C98.9086 131.303 96.5925 134.136 96.5925 134.136C96.5925 134.136 100.216 134.648 102.892 133.602C105.567 132.556 107.883 129.723 107.883 129.723C107.883 129.723 104.259 129.211 101.584 130.257Z" fill="#5EA985"/>
<path d="M90.131 135.953C89.6217 133.126 87.2887 130.306 87.2887 130.306C87.2887 130.306 86.0866 133.762 86.596 136.59C87.1053 139.417 89.4382 142.237 89.4382 142.237C89.4382 142.237 90.6403 138.78 90.131 135.953Z" fill="#5EA985"/>
<path d="M81.2817 133.237C80.2728 130.548 77.4712 128.193 77.4712 128.193C77.4712 128.193 76.9097 131.81 77.9186 134.499C78.9276 137.189 81.7292 139.544 81.7292 139.544C81.7292 139.544 82.2907 135.927 81.2817 133.237Z" fill="#5EA985"/>
<path fill-rule="evenodd" clip-rule="evenodd" d="M115.641 140.829C115.78 140.428 115.909 140.007 116.026 139.571C116.904 136.29 116.729 133.392 115.635 133.099C114.541 132.806 112.942 135.23 112.064 138.512C111.948 138.948 111.85 139.377 111.77 139.794C111.585 139.412 111.379 139.023 111.153 138.632C109.453 135.691 107.28 133.765 106.3 134.332C105.319 134.899 105.902 137.742 107.602 140.684C107.828 141.074 108.062 141.447 108.3 141.798C107.899 141.659 107.479 141.53 107.043 141.413C103.761 140.535 100.863 140.71 100.571 141.804C100.278 142.898 102.701 144.497 105.983 145.375C106.419 145.492 106.848 145.59 107.265 145.669C106.883 145.855 106.494 146.061 106.103 146.286C103.162 147.986 101.237 150.159 101.803 151.139C102.37 152.12 105.214 151.537 108.155 149.837C108.546 149.611 108.918 149.377 109.27 149.139C109.131 149.54 109.001 149.961 108.885 150.396C108.007 153.678 108.182 156.576 109.276 156.869C110.37 157.161 111.968 154.738 112.846 151.456C112.963 151.02 113.061 150.591 113.141 150.174C113.326 150.556 113.532 150.945 113.758 151.336C115.458 154.277 117.63 156.203 118.611 155.636C119.591 155.069 119.008 152.225 117.309 149.284C117.083 148.893 116.849 148.521 116.611 148.17C117.012 148.309 117.432 148.438 117.868 148.555C121.15 149.433 124.048 149.258 124.34 148.164C124.633 147.07 122.21 145.471 118.928 144.593C118.492 144.477 118.063 144.378 117.646 144.299C118.028 144.113 118.417 143.907 118.807 143.682C121.749 141.982 123.674 139.809 123.108 138.829C122.541 137.848 119.697 138.431 116.756 140.131C116.365 140.357 115.992 140.591 115.641 140.829Z" fill="white"/>
<circle cx="112.455" cy="144.984" r="2.81939" transform="rotate(-75.0218 112.455 144.984)" fill="#FED402"/>
<path d="M75.567 127.256H91.414V150.85C91.414 151.648 90.5641 152.158 89.8604 151.783L83.4905 148.385L77.1206 151.783C76.4169 152.158 75.567 151.648 75.567 150.85V127.256Z" fill="#FEB1AA"/>
<path d="M57.6072 121.974C59.9235 125.706 63.1535 128.591 67.6436 128.841C72.2374 129.096 78.1254 126.673 83.4906 126.728C88.6398 126.78 93.7941 128.959 98.2811 128.841C103.307 128.709 107.496 126.078 109.902 121.974" stroke="#433D3C" stroke-width="2.64116" stroke-linecap="round" stroke-linejoin="round"/>
</svg>
