<?xml version="1.0" encoding="iso-8859-1"?>
<!-- Uploaded to: SVG Repo, www.svgrepo.com, Generator: SVG Repo Mixer Tools -->
<svg height="800px" width="800px" version="1.1" id="Layer_1" xmlns="http://www.w3.org/2000/svg" xmlns:xlink="http://www.w3.org/1999/xlink" 
	 viewBox="0 0 503.467 503.467" xml:space="preserve">
<g transform="translate(5 1)">
	<polygon style="fill:#80D6FA;" points="289.4,327.533 289.4,412.867 289.4,498.2 460.067,498.2 460.067,327.533 	"/>
	<polygon style="fill:#F2EDDA;" points="374.733,156.867 374.733,242.2 204.067,242.2 204.067,327.533 289.4,327.533 
		460.067,327.533 460.067,156.867 	"/>
	<polygon style="fill:#7EE1E6;" points="118.733,3.267 118.733,88.6 118.733,173.933 204.067,173.933 204.067,88.6 374.733,88.6 
		374.733,3.267 	"/>
	<polygon style="fill:#FF7474;" points="33.4,242.2 33.4,412.867 204.067,412.867 204.067,498.2 289.4,498.2 289.4,412.867 
		289.4,327.533 204.067,327.533 118.733,327.533 118.733,242.2 	"/>
	<polygon style="fill:#ECF4F7;" points="33.4,498.2 204.067,498.2 204.067,412.867 33.4,412.867 	"/>
</g>
<path style="fill:#51565F;" d="M465.067,503.467H38.4c-2.56,0-4.267-1.707-4.267-4.267v-256c0-2.56,1.707-4.267,4.267-4.267h85.333
	c2.56,0,4.267,1.707,4.267,4.267v81.067h76.8V243.2c0-2.56,1.707-4.267,4.267-4.267h166.4v-81.067c0-2.56,1.707-4.267,4.267-4.267
	h85.333c2.56,0,4.267,1.707,4.267,4.267v255.147v0.853v0.853v84.48C469.333,501.76,467.627,503.467,465.067,503.467z
	 M42.667,494.933H460.8v-76.8H384v46.933c0,2.56-1.707,4.267-4.267,4.267c-2.56,0-4.267-1.707-4.267-4.267v-46.933h-76.8v46.933
	c0,2.56-1.707,4.267-4.267,4.267s-4.267-1.707-4.267-4.267v-46.933h-76.8v46.933c0,2.56-1.707,4.267-4.267,4.267
	s-4.267-1.707-4.267-4.267v-46.933H128v46.933c0,2.56-1.707,4.267-4.267,4.267c-2.56,0-4.267-1.707-4.267-4.267v-46.933H72.533
	c-2.56,0-4.267-1.707-4.267-4.267c0-2.56,1.707-4.267,4.267-4.267h51.2c0,0,0,0,0.853,0h84.48c0,0,0,0,0.853,0h84.48
	c0,0,0,0,0.853,0h84.48c0,0,0,0,0.853,0h81.067v-76.8h-76.8v46.933c0,2.56-1.707,4.267-4.267,4.267s-4.267-1.707-4.267-4.267V332.8
	h-76.8v46.933c0,2.56-1.707,4.267-4.267,4.267c-2.56,0-4.267-1.707-4.267-4.267V332.8h-76.8v46.933c0,2.56-1.707,4.267-4.267,4.267
	s-4.267-1.707-4.267-4.267V332.8h-76.8v46.933c0,2.56-1.707,4.267-4.267,4.267c-2.56,0-4.267-1.707-4.267-4.267V332.8H73.387
	c-2.56,0-4.267-1.707-4.267-4.267c0-2.56,1.707-4.267,4.267-4.267h46.933v-76.8h-76.8v247.467H42.667z M380.587,324.267H460.8v-76.8
	h-38.4c-2.56,0-4.267-1.707-4.267-4.267s1.707-4.267,4.267-4.267h38.4v-76.8H384V294.4c0,2.56-1.707,4.267-4.267,4.267
	c-2.56,0-4.267-1.707-4.267-4.267v-46.933h-76.8V294.4c0,2.56-1.707,4.267-4.267,4.267s-4.267-1.707-4.267-4.267v-46.933h-76.8v76.8
	h80.213h0.853h84.48C379.733,324.267,379.733,324.267,380.587,324.267z M209.067,179.2h-85.333c-2.56,0-4.267-1.707-4.267-4.267
	V4.267c0-2.56,1.707-4.267,4.267-4.267h256C382.293,0,384,1.707,384,4.267V89.6c0,2.56-1.707,4.267-4.267,4.267h-166.4v81.067
	C213.333,177.493,211.627,179.2,209.067,179.2z M128,170.667h76.8v-76.8h-46.933c-2.56,0-4.267-1.707-4.267-4.267
	c0-2.56,1.707-4.267,4.267-4.267h217.6v-76.8h-76.8v46.933c0,2.56-1.707,4.267-4.267,4.267s-4.267-1.707-4.267-4.267V8.533h-76.8
	v46.933c0,2.56-1.707,4.267-4.267,4.267s-4.267-1.707-4.267-4.267V8.533H128V170.667z"/>
</svg>
